#!OML:ASF E:\VariousWalksJay\Project 1\Capture day 1\Session 1\Actor2.ASF
:FULLY-SPECIFIED
:DEGREES
1058
root 9.96097 17.23 31.2328 8.15825 -42.9814 0.708663
lowerback 0.821999 -3.00586 4.49283
upperback 4.59333 -4.00897 -4.26348
thorax 3.69498 -1.78776 -7.058
lowerneck -8.60567 -4.33648 -6.55496
upperneck 25.0101 -9.06647 14.3505
head 10.34 -3.51945 5.15951
rclavicle -4.77083e-015 -7.95139e-015
rhumerus -75.5419 17.2296 -128.55
rradius 64.0336
rwrist 9.32045
rhand 2.76859 9.8545
rfingers 7.12502
rthumb 28.2394 -18.0375
lclavicle -4.77083e-015 -7.95139e-015
lhumerus -80.349 -21.3838 136.679
lradius 60.859
lwrist 0.282238
lhand -64.143 11.3179
lfingers 7.12502
lthumb -36.0864 -322.387
rfemur -31.6509 -3.28685 26.9665
rtibia 25.215
rfoot -7.77913 -17.4883
rtoes 2.92915
lfemur -2.83275 14.1951 -24.3858
ltibia 32.5489
lfoot -5.04064 -3.04931
ltoes -24.809
1059
root 9.82632 17.2711 31.3372 8.12369 -43.0938 0.331774
lowerback 0.0682179 -3.00716 4.45722
upperback 4.48945 -4.0304 -4.27931
thorax 4.01071 -1.78869 -7.10039
lowerneck -8.55679 -4.20859 -6.39117
upperneck 25.6896 -9.05115 14.368
head 10.5722 -3.4907 5.16471
rclavicle 8.26944e-014 2.70347e-014
rhumerus -75.4564 17.0421 -128.553
rradius 64.091
rwrist 9.49243
rhand 2.85443 9.71455
rfingers 7.12502
rthumb 28.3214 -18.1639
lclavicle 8.26944e-014 2.70347e-014
lhumerus -80.5527 -21.4743 136.652
lradius 61.0066
lwrist 0.36732
lhand -63.6201 11.7734
lfingers 7.12502
lthumb -35.5909 -321.811
rfemur -30.1441 -3.27356 27.1197
rtibia 24.3458
rfoot -7.62264 -16.4754
rtoes 2.59176
lfemur -2.56002 14.0204 -23.6094
ltibia 33.3844
lfoot -3.59577 -3.21919
ltoes -24.4163
1060
root 9.69563 17.3044 31.4369 8.07943 -43.2102 -0.0495178
lowerback -0.587387 -3.00114 4.41554
upperback 4.39508 -4.03843 -4.29898
thorax 4.28372 -1.78448 -7.13818
lowerneck -8.53878 -4.09922 -6.24068
upperneck 26.2728 -9.05278 14.418
head 10.7826 -3.46787 5.17926
rclavicle -1.15295e-014 -2.22639e-014
rhumerus -75.369 16.8416 -128.538
rradius 64.147
rwrist 9.62153
rhand 2.95969 9.5116
rfingers 7.12502
rthumb 28.422 -18.3501
lclavicle -1.15295e-014 -2.22639e-014
lhumerus -80.7355 -21.5756 136.627
lradius 61.1345
lwrist 0.425636
lhand -63.1127 12.1406
lfingers 7.12502
lthumb -35.1098 -321.329
rfemur -28.7194 -3.45447 27.3789
rtibia 23.4961
rfoot -7.44291 -15.5407
rtoes 2.55738
lfemur -2.40366 13.8613 -22.8362
ltibia 34.461
lfoot -2.44142 -3.32199
ltoes -24.0225
1061
root 9.57063 17.3302 31.5322 7.95983 -43.3523 -0.308167
lowerback -1.14946 -2.9837 4.28236
upperback 4.30012 -4.02387 -4.34663
thorax 4.5106 -1.77396 -7.14712
lowerneck -8.55126 -4.01061 -6.11557
upperneck 26.7588 -9.07476 14.5103
head 10.9714 -3.45257 5.20847
rclavicle -3.93594e-014 1.27222e-014
rhumerus -75.2831 16.6307 -128.503
rradius 64.2113
rwrist 9.70523
rhand 3.08567 9.25717
rfingers 7.12502
rthumb 28.5424 -18.5844
lclavicle -3.93594e-014 1.27222e-014
lhumerus -80.8946 -21.6878 136.599
lradius 61.249
lwrist 0.448771
lhand -62.6166 12.4212
lfingers 7.12502
lthumb -34.6391 -320.939
rfemur -27.4195 -3.83153 27.6323
rtibia 22.7133
rfoot -7.24739 -14.694
rtoes 2.74888
lfemur -2.38386 13.6992 -22.1907
ltibia 35.7718
lfoot -1.64021 -3.32457
ltoes -23.5751
1062
root 9.45164 17.3488 31.6227 7.93733 -43.489 -0.801271
lowerback -1.53765 -2.9565 4.33022
upperback 4.22854 -3.99882 -4.35444
thorax 4.65684 -1.75463 -7.20582
lowerneck -8.59067 -3.94343 -6.00644
upperneck 27.1447 -9.11423 14.6282
head 11.1342 -3.44417 5.24443
rclavicle -4.29375e-014 -6.36111e-015
rhumerus -75.2011 16.4217 -128.457
rradius 64.2868
rwrist 9.735
rhand 3.20929 8.96117
rfingers 7.12502
rthumb 28.6605 -18.8605
lclavicle -4.29375e-014 -6.36111e-015
lhumerus -81.0206 -21.809 136.558
lradius 61.355
lwrist 0.44041
lhand -62.1204 12.614
lfingers 7.12502
lthumb -34.1681 -320.64
rfemur -26.1534 -4.37606 28.1497
rtibia 22.0261
rfoot -7.0417 -13.937
rtoes 2.95522
lfemur -2.4194 13.5464 -21.3541
ltibia 37.3325
lfoot -1.22858 -3.23024
ltoes -23.146
1063
root 9.33853 17.3606 31.7079 7.85473 -43.6523 -1.21206
lowerback -1.81312 -2.91816 4.30875
upperback 4.16317 -3.95274 -4.3781
thorax 4.75185 -1.7293 -7.23333
lowerneck -8.65679 -3.89739 -5.92851
upperneck 27.4339 -9.17048 14.7802
head 11.2726 -3.44293 5.2932
rclavicle -1.78906e-014 3.02153e-014
rhumerus -75.1284 16.2346 -128.408
rradius 64.3784
rwrist 9.71269
rhand 3.33019 8.63517
rfingers 7.12502
rthumb 28.776 -19.1669
lclavicle -1.78906e-014 3.02153e-014
lhumerus -81.1043 -21.9352 136.498
lradius 61.4536
lwrist 0.399867
lhand -61.6264 12.7124
lfingers 7.12502
lthumb -33.6988 -320.438
rfemur -25.0044 -5.00711 28.6478
rtibia 21.471
rfoot -6.87828 -13.2881
rtoes 3.37685
lfemur -2.58114 13.3823 -20.6078
ltibia 39.1312
lfoot -1.19322 -3.01468
ltoes -22.7283
1064
root 9.23183 17.3659 31.7876 7.72095 -43.8343 -1.56351
lowerback -1.96748 -2.87057 4.24335
upperback 4.10764 -3.88868 -4.41549
thorax 4.79269 -1.69865 -7.24142
lowerneck -8.73988 -3.87298 -5.87932
upperneck 27.6239 -9.24348 14.9645
head 11.3828 -3.44933 5.35344
rclavicle -7.07673e-014 3.18055e-015
rhumerus -75.045 16.0782 -128.362
rradius 64.4495
rwrist 9.62574
rhand 3.39336 8.34657
rfingers 7.12502
rthumb 28.8364 -19.4452
lclavicle -7.07673e-014 3.18055e-015
lhumerus -81.1458 -22.0663 136.413
lradius 61.5441
lwrist 0.327686
lhand -61.1318 12.7131
lfingers 7.12502
lthumb -33.2286 -320.335
rfemur -23.9474 -5.659 29.1161
rtibia 21.0387
rfoot -6.73775 -12.7408
rtoes 3.83434
lfemur -2.87063 13.2039 -19.9293
ltibia 41.173
lfoot -1.50928 -2.70779
ltoes -22.3547
